<svg version="1.1" id="Layer_1" xmlns="http://www.w3.org/2000/svg" xmlns:xlink="http://www.w3.org/1999/xlink" x="0px" y="0px"
	 width="100%" viewBox="0 0 1024 1024" enable-background="new 0 0 1024 1024" xml:space="preserve">
<path fill="#FFFFFF" opacity="1.000000" stroke="none" 
	d="
M500.000000,1025.000000 
	C333.333344,1025.000000 167.166672,1025.000000 1.000000,1025.000000 
	C1.000000,683.666687 1.000000,342.333344 1.000000,1.000000 
	C342.333344,1.000000 683.666687,1.000000 1025.000000,1.000000 
	C1025.000000,342.333344 1025.000000,683.666687 1025.000000,1025.000000 
	C850.166687,1025.000000 675.333313,1025.000000 500.000000,1025.000000 
M699.022034,737.021118 
	C699.022034,737.021118 699.042908,737.096863 699.555847,736.925903 
	C699.747192,736.630554 699.938538,736.335266 700.587646,735.928711 
	C700.881348,735.749512 701.035217,735.488037 701.570374,734.968201 
	C701.767517,734.670837 701.964661,734.373474 702.095825,734.055786 
	C702.095825,734.055786 702.128906,734.116394 702.758057,733.867065 
	C709.575500,727.188293 716.392944,720.509521 723.210388,713.830750 
	C720.780029,712.998474 719.094421,712.977844 717.553711,713.440125 
	C694.109741,720.474060 670.234375,723.481873 645.821472,720.882263 
	C640.157715,720.279175 634.605469,718.686646 628.970764,717.734070 
	C624.673706,717.007507 620.327209,716.572876 615.413147,715.937378 
	C615.017700,715.929871 614.622314,715.922302 613.998657,715.338440 
	C612.672058,715.254700 611.345520,715.170898 609.628174,714.919434 
	C609.628174,714.919434 609.202942,714.916565 608.939148,714.284302 
	C607.522766,714.129395 606.099121,714.023010 604.691162,713.811707 
	C593.739319,712.168579 582.839111,709.966675 571.829407,708.973755 
	C555.142090,707.468811 538.655457,709.728882 522.391602,713.565735 
	C501.095520,718.589722 482.055786,728.573486 463.631409,740.038452 
	C445.427765,751.366089 427.106018,762.512146 408.632233,773.391785 
	C403.727753,776.280151 398.073944,777.896118 392.208160,780.326660 
	C393.711731,781.195435 394.621155,781.893738 395.647430,782.287476 
	C407.601532,786.874146 419.380737,792.027466 431.574341,795.859558 
	C479.431732,810.899902 527.909668,812.593750 576.679749,800.815002 
	C595.044678,796.379639 613.223206,791.093018 630.761536,782.193054 
	C631.500305,781.770508 632.239075,781.347961 633.617676,780.879028 
	C634.170776,780.286743 634.723938,779.694519 635.646729,779.174316 
	C635.646729,779.174316 635.995361,779.032043 636.614563,779.156128 
	C636.823059,778.797607 637.031494,778.439087 637.623657,778.133728 
	C637.623657,778.133728 637.995728,778.026245 638.641846,778.284546 
	C639.140747,777.873657 639.639648,777.462769 640.625366,776.952087 
	C640.625366,776.952087 640.999634,776.625183 641.598206,776.529602 
	C642.140686,776.048096 642.683167,775.566589 643.619751,775.117859 
	C643.619751,775.117859 643.999451,775.007446 644.611389,775.157104 
	C644.811401,774.795105 645.011414,774.433044 645.618469,774.089539 
	C645.618469,774.089539 646.005066,773.961121 646.590271,774.086548 
	C646.780823,773.743652 646.971375,773.400757 647.595276,773.049866 
	C647.595276,773.049866 648.010010,772.924072 648.572327,773.048523 
	C648.751160,772.716492 648.929993,772.384460 649.027100,772.022766 
	C649.027100,772.022766 649.062012,772.102295 649.734009,772.039673 
	C650.563721,771.393921 651.393372,770.748169 652.619080,770.133423 
	C652.619080,770.133423 652.996887,770.010681 653.607361,770.144043 
	C653.811401,769.787537 654.015442,769.431030 654.878418,769.148804 
	C655.918640,768.442322 656.958862,767.735840 658.613281,767.150146 
	C658.813232,766.791748 659.013184,766.433350 659.623413,766.082581 
	C659.623413,766.082581 660.008667,765.940979 660.575195,766.049316 
	C660.767334,765.726929 660.959473,765.404541 661.064392,765.066895 
	C661.064392,765.066895 661.078064,765.154358 661.599304,764.982422 
	C661.795776,764.686951 661.992188,764.391479 662.090454,764.082397 
	C662.090454,764.082397 662.115173,764.178406 662.790771,764.160339 
	C663.593811,763.492798 664.396851,762.825195 665.087463,762.104370 
	C665.087463,762.104370 665.143616,762.215393 665.842590,762.238037 
	C666.658203,761.527588 667.473816,760.817200 668.658325,760.185181 
	C668.658325,760.185181 668.998840,760.023315 669.685974,760.163025 
	C670.221802,759.478821 670.757690,758.794556 671.652588,758.193542 
	C671.652588,758.193542 671.993591,758.053711 672.618042,758.172546 
	C672.813110,757.804138 673.008179,757.435791 673.721985,756.942505 
	C674.152527,756.642090 674.583069,756.341614 675.625183,756.152832 
	C675.816833,755.790649 676.008484,755.428467 676.728149,754.938782 
	C677.197449,754.417664 677.666687,753.896545 678.864014,753.320190 
	C680.975769,751.572021 683.087524,749.823853 685.762146,747.906067 
	C686.506653,747.283875 687.251221,746.661682 688.594360,746.128662 
	C688.777405,745.775085 688.960388,745.421570 689.056274,745.051575 
	C689.056274,745.051575 689.063599,745.139893 689.598877,744.976440 
	C689.798645,744.672424 689.998352,744.368408 690.647278,743.992310 
	C690.971985,743.858582 691.123413,743.616394 691.747253,743.192871 
	C692.947144,742.119812 694.147095,741.046753 695.975464,739.734680 
	C696.649292,739.160278 697.323059,738.585876 698.575989,738.063599 
	C698.749756,737.723694 698.923523,737.383728 699.022034,737.021118 
M410.038818,737.024292 
	C410.038818,737.024292 410.037079,737.102966 410.687439,737.012878 
	C410.998383,736.721802 411.309296,736.430664 412.269867,736.048523 
	C416.577881,733.246460 420.885925,730.444397 425.848846,727.448853 
	C426.912292,726.640747 427.975708,725.832642 429.006470,724.995239 
	C429.006470,724.995239 429.020508,725.036072 429.701843,724.922607 
	C431.371368,723.691711 433.040894,722.460815 435.177277,721.232788 
	C435.487579,720.922485 435.797882,720.612183 436.789337,720.106201 
	C441.877838,716.779602 446.966339,713.453003 452.643402,710.053894 
	C453.095795,709.701782 453.548187,709.349609 454.702301,708.913818 
	C457.771393,707.284729 460.807220,705.588928 463.916077,704.039673 
	C471.972198,700.025024 480.060394,696.074829 488.036072,692.053528 
	C488.036072,692.053528 488.090240,692.148743 488.834412,692.135254 
	C490.268005,691.455200 491.701630,690.775208 493.087799,690.068298 
	C493.087799,690.068298 493.113342,690.117432 493.917511,690.061401 
	C496.040894,689.402954 498.123230,688.522522 500.294128,688.121277 
	C517.192566,684.998413 534.107971,681.967773 551.854736,679.084290 
	C553.555481,678.992004 555.256226,678.899658 557.872498,678.971863 
	C561.593750,678.914246 565.315002,678.856689 569.711548,679.000916 
	C571.466858,678.984009 573.222229,678.967102 575.789551,679.183472 
	C579.531616,679.407654 583.273682,679.631836 587.492432,680.051697 
	C587.657959,680.005981 587.823547,679.960327 588.768982,680.166504 
	C603.356201,682.692078 617.969788,685.075073 632.525574,687.770203 
	C674.891663,695.614685 714.219727,687.364685 751.037048,665.647522 
	C754.405762,663.660522 759.022278,662.090515 760.599609,659.050598 
	C768.687500,643.463318 775.969727,627.457886 783.781555,611.078430 
	C781.021179,610.031372 779.374817,609.355469 777.694885,608.777283 
	C737.868469,595.069702 698.460693,596.583557 659.764587,612.833313 
	C642.451721,620.103577 625.636780,628.554565 608.548401,636.365845 
	C591.293457,644.253235 573.125366,648.980652 554.277832,650.628723 
	C542.795166,651.632751 531.188232,652.241150 519.692078,651.747681 
	C510.145447,651.337952 500.612579,649.394104 491.193604,647.525146 
	C478.723938,645.050781 466.403656,641.831909 453.956726,639.231995 
	C445.763824,637.520630 437.460846,636.336304 428.883484,634.239990 
	C426.255920,633.945190 423.628387,633.650330 420.132874,633.125305 
	C417.739716,633.124573 415.346588,633.123779 412.278015,632.906982 
	C405.858765,633.287170 399.439484,633.667297 392.185120,633.913025 
	C387.452911,634.690979 382.642548,635.153259 378.002350,636.302673 
	C360.011078,640.759216 342.947662,647.573975 326.428528,657.007385 
	C326.226196,657.317566 326.023865,657.627686 325.392639,657.972046 
	C325.392639,657.972046 324.989075,658.121155 324.451569,658.044556 
	C324.254974,658.335571 324.058380,658.626648 323.955933,658.958923 
	C323.955933,658.958923 323.910156,658.866882 323.240723,658.993408 
	C321.689026,659.783569 320.137329,660.573730 318.534698,661.456360 
	C318.534698,661.456360 318.436066,661.418701 317.779846,661.644043 
	C315.137939,663.059998 312.496033,664.475952 309.960510,665.946655 
	C309.960510,665.946655 309.897705,665.844910 309.301666,665.927124 
	C308.841064,666.223633 308.380432,666.520081 307.282410,667.113770 
	C305.521637,668.096497 303.760895,669.079285 301.303802,669.919617 
	C300.119019,670.580750 298.934235,671.241943 297.349030,671.906250 
	C297.349030,671.906250 296.999542,672.101746 296.345703,672.082397 
	C295.237335,672.721375 294.128967,673.360352 292.830963,674.004028 
	C292.830963,674.004028 292.701965,674.143127 292.372559,674.157349 
	C292.372559,674.157349 292.104187,674.348938 291.448975,674.429504 
	C289.197174,675.512817 286.945343,676.596191 284.884216,677.657288 
	C284.884216,677.657288 284.696594,677.616638 283.932983,677.700500 
	C281.820953,678.472107 279.708923,679.243713 277.088165,680.201172 
	C278.497559,682.183899 279.672638,683.837036 280.868530,685.828247 
	C280.868530,685.828247 281.161499,685.998352 281.327850,686.633118 
	C282.520264,688.169067 283.712708,689.705078 284.992584,691.667603 
	C285.127106,691.967651 285.358795,692.118042 285.890320,692.612793 
	C286.297485,693.191528 286.704620,693.770264 287.236694,694.721863 
	C287.236694,694.721863 287.574036,694.923889 287.881012,695.425476 
	C289.100830,696.750549 290.320679,698.075623 291.640869,699.391296 
	C291.640869,699.391296 291.593292,699.480225 291.777252,699.988403 
	C292.162079,700.347290 292.546936,700.706177 293.106415,701.704468 
	C294.008850,702.667786 294.911255,703.631042 295.944519,705.061523 
	C296.295380,705.376709 296.646271,705.691956 297.201111,706.647217 
	C300.567017,710.292358 303.932922,713.937500 307.685242,718.135986 
	C321.303436,730.247986 334.893463,742.392029 348.593414,754.410828 
	C349.688873,755.371948 351.575867,755.981934 353.039825,755.888672 
	C372.960083,754.618652 391.240601,748.141663 408.773560,738.123779 
	C408.773560,738.123779 409.027039,737.808533 409.512787,737.782288 
	C409.839355,737.644531 410.038818,737.402161 410.038818,737.024292 
M795.398621,472.636749 
	C791.338196,455.896912 787.327087,439.144775 783.156372,422.432465 
	C782.621521,420.289093 781.257690,418.352631 780.593689,416.230743 
	C780.593689,416.230743 780.599487,415.902588 780.584839,415.119049 
	C779.326233,412.097931 778.067688,409.076813 776.745422,405.342316 
	C720.446777,271.074493 568.522705,195.171646 427.066650,241.850800 
	C293.343048,285.978333 225.769165,414.163391 229.728058,508.434113 
	C231.658127,507.495056 233.425446,506.700043 235.134018,505.794220 
	C265.538666,489.675079 297.829742,479.595490 332.174347,477.300018 
	C377.965057,474.239655 420.783844,485.079651 460.577881,507.623352 
	C478.665833,517.870300 496.240387,529.023560 514.529785,540.271118 
	C519.323181,543.263916 524.116516,546.256714 529.213318,549.783752 
	C530.098755,550.282837 530.984192,550.781860 532.206360,551.869019 
	C547.563660,561.869690 563.661499,570.412231 581.214355,575.874207 
	C607.157776,583.947021 633.249451,587.940308 660.350403,580.857971 
	C677.142700,576.469666 694.258484,572.801514 711.458801,570.630554 
	C730.482483,568.229492 749.489746,570.916870 768.066895,575.790161 
	C775.677673,577.786804 783.216980,580.055786 791.377380,582.367676 
	C792.320007,574.875305 793.122864,567.755432 794.135010,560.665344 
	C795.065979,554.143677 796.721375,547.687866 797.163940,541.142639 
	C797.855469,530.914368 797.855896,520.636047 798.004578,510.376862 
	C798.040833,507.878571 797.514465,505.372162 797.246399,502.286499 
	C797.243591,501.897827 797.240845,501.509186 797.867371,500.653137 
	C797.592346,497.583160 797.305420,494.514191 797.044800,491.442993 
	C796.577087,485.931702 796.125122,480.419098 795.785889,474.336304 
	C795.572449,474.029205 795.359009,473.722107 795.398621,472.636749 
M271.319153,605.840881 
	C262.930511,609.743469 254.541885,613.646057 245.788040,617.718567 
	C251.228119,629.178040 256.632416,640.562134 262.198181,652.286438 
	C266.954926,650.695557 271.553314,649.661621 275.700439,647.682251 
	C292.670990,639.582458 309.560547,631.307373 326.375763,622.888916 
	C363.330872,604.387390 402.081238,598.055542 442.783966,605.974121 
	C464.167908,610.134399 485.274719,615.820923 506.739075,619.439697 
	C533.077881,623.880371 559.197693,621.441956 584.630188,612.950073 
	C586.493652,612.327881 588.243103,611.364502 590.934326,610.162903 
	C584.230164,608.392700 578.745728,607.126038 573.372253,605.494080 
	C550.997253,598.698425 530.959473,587.235352 511.522430,574.518677 
	C484.215790,556.653259 457.136017,538.350464 427.323364,524.756897 
	C391.546265,508.443726 354.130432,502.661346 315.229004,509.203522 
	C289.009674,513.612915 264.920715,524.119812 241.820679,537.001831 
	C237.621429,539.343567 231.494156,540.859009 229.840195,544.420105 
	C228.060852,548.251221 230.215195,554.096619 231.157898,558.965393 
	C233.073425,568.858521 235.328781,578.685974 237.673645,589.609985 
	C251.500946,581.818604 264.352539,574.542725 277.236572,567.324768 
	C299.721680,554.728027 323.302612,546.176025 349.628296,549.048706 
	C368.182831,551.073364 384.869781,557.505859 397.722565,571.747498 
	C399.588226,573.814758 400.949463,576.337158 402.544098,578.648987 
	C400.343842,579.184387 399.059235,578.977478 397.889954,578.492554 
	C372.797058,568.085815 347.546997,568.906921 323.059235,579.501465 
	C305.558533,587.073059 288.971954,596.757507 271.319153,605.840881 
z"/>
<path fill="#1D9EB6" opacity="1.000000" stroke="none" 
	d="
M797.238037,501.120514 
	C797.240845,501.509186 797.243591,501.897827 796.909790,502.854370 
	C795.715515,517.721375 794.881287,532.022034 793.984802,546.318787 
	C793.736511,550.278015 793.479919,554.251160 792.914429,558.172729 
	C792.015686,564.405334 790.854004,570.599976 789.725708,577.270691 
	C784.918274,574.394348 782.811584,571.455139 784.546082,566.780884 
	C784.874939,565.894714 785.165955,564.563538 784.745117,563.900696 
	C782.179016,559.858887 783.615845,556.090759 784.729858,551.985413 
	C786.544861,545.296814 784.292603,541.791748 777.999634,537.653198 
	C776.420227,536.614502 775.882202,533.542908 775.504944,531.298157 
	C775.286865,530.000977 776.439392,528.513184 776.812073,527.069153 
	C777.651184,523.817810 776.087769,521.448730 773.058655,521.449585 
	C771.707275,521.449951 769.426208,524.120789 769.190674,525.806396 
	C768.619873,529.891174 769.045166,534.109741 768.976685,538.272888 
	C768.952454,539.745300 768.883301,542.421265 768.456360,542.500122 
	C762.972778,543.513245 761.313599,548.887817 757.668335,551.522461 
	C751.777222,555.780334 751.123413,555.152893 753.423096,562.046021 
	C754.057556,563.947632 753.903320,566.112427 754.111023,568.156433 
	C752.638794,567.802612 751.179565,567.369690 749.689636,567.123169 
	C748.716858,566.962219 747.695740,567.012024 746.702393,567.070374 
	C741.747559,567.361450 736.795715,567.703613 731.841064,567.996521 
	C720.606323,568.660828 709.372009,569.334351 698.133789,569.933411 
	C696.226379,570.034973 694.300232,569.783875 692.255798,569.689819 
	C692.148926,567.807129 692.146362,566.487122 691.988403,565.185913 
	C691.015381,557.168457 690.073730,549.145813 688.932617,541.151794 
	C688.778625,540.072876 687.716675,538.477417 686.811584,538.269714 
	C683.767944,537.571289 680.610840,537.210632 677.484924,537.114380 
	C676.417603,537.081482 674.517395,538.045532 674.353271,538.835571 
	C672.990662,545.397705 668.205566,545.250305 663.169556,545.033325 
	C660.130127,544.902466 657.268066,545.130493 655.898865,548.801270 
	C655.407104,550.119751 653.547485,551.819275 652.376465,551.771423 
	C650.851624,551.709106 649.324097,550.167419 647.923157,549.098022 
	C646.788269,548.231689 645.962219,546.462219 644.784302,546.241821 
	C640.851318,545.505920 636.641296,545.857117 632.891541,544.671692 
	C630.313782,543.856812 627.046570,541.561218 626.364868,539.254517 
	C625.299561,535.649353 629.190063,535.524597 631.429688,536.104309 
	C639.891968,538.294739 645.022278,531.573425 651.661499,528.954712 
	C651.899292,528.860901 651.844666,528.025879 652.049194,527.584534 
	C652.172058,527.632812 652.347656,527.830017 652.664795,527.814575 
	C653.315308,527.557922 653.648743,527.316711 654.374268,526.981323 
	C661.054932,524.448181 667.623108,522.552368 673.587158,519.482849 
	C714.681519,498.332916 729.877014,447.156433 711.789490,407.338318 
	C695.519897,371.522308 658.524353,352.585297 619.242676,359.066101 
	C569.811707,367.221344 537.842529,416.007172 550.688538,464.243256 
	C552.976807,472.835571 557.020630,480.960327 560.182617,489.721710 
	C560.488403,494.070679 561.698853,497.300446 566.366699,497.674500 
	C566.353516,497.727661 566.265198,497.662811 566.291138,497.958771 
	C566.648865,498.428467 566.980652,498.602203 567.256104,498.804993 
	C567.199768,498.834106 567.219543,498.708893 567.259155,498.995117 
	C567.613525,499.475311 567.928284,499.669220 568.179749,499.878052 
	C568.116455,499.892944 568.136230,499.764404 568.208008,500.040009 
	C568.596802,500.499298 568.913940,500.683014 569.171143,500.880066 
	C569.111267,500.893463 569.132812,500.772675 569.203918,501.045959 
	C569.585388,501.510254 569.895691,501.701233 570.147705,501.902527 
	C570.089417,501.912872 570.107849,501.795837 570.188843,502.063690 
	C570.581421,502.514435 570.892944,502.697357 571.151489,502.891724 
	C571.098572,502.903198 571.119141,502.796814 571.195984,503.065216 
	C571.580872,503.521912 571.888977,503.710175 572.139648,503.912262 
	C572.082336,503.926056 572.089172,503.808319 572.195129,504.084167 
	C572.638306,504.542450 572.975525,504.724854 573.513062,504.948914 
	C573.975952,505.143707 574.102966,505.372253 574.174072,505.963806 
	C574.574646,506.466248 574.895508,506.681091 575.150269,506.899689 
	C575.084229,506.903442 575.116150,506.775024 575.200195,507.050415 
	C575.614319,507.492218 575.944397,507.658630 576.206665,507.840027 
	C576.138794,507.854980 576.171814,507.719971 576.234375,508.005920 
	C576.629456,508.459930 576.962097,508.627991 577.240234,508.769104 
	C577.185852,508.742126 577.287109,508.675079 577.223511,509.058258 
	C578.465881,510.272949 579.771851,511.104431 581.039429,511.964508 
	C581.000977,511.993103 581.059265,511.916962 581.093628,512.276367 
	C581.888062,512.914856 582.648132,513.193909 583.424561,513.514587 
	C583.440918,513.556213 583.519714,513.513855 583.390381,513.906128 
	C584.279053,514.722839 585.297058,515.147339 586.346802,515.604309 
	C586.378601,515.636780 586.338135,515.551636 586.339722,515.928711 
	C587.587402,516.849792 588.833435,517.393860 590.066223,517.941772 
	C590.052979,517.945557 590.078552,517.915649 590.010254,518.318115 
	C590.175781,521.830383 590.409729,524.940125 590.643677,528.049866 
	C593.424561,527.702515 596.238831,526.905823 598.978760,527.109314 
	C603.481018,527.443848 607.935547,528.424194 612.407227,529.150391 
	C612.528687,529.170105 612.640320,529.385010 612.716309,529.529968 
	C614.521790,532.972900 616.321655,536.418762 618.322571,540.246643 
	C614.226379,541.296570 611.046570,541.749817 608.134033,538.771667 
	C607.241760,537.859314 605.563110,537.716125 604.244568,537.220703 
	C603.829590,538.373962 603.397583,539.521423 603.004150,540.682007 
	C602.540588,542.049133 602.508423,544.202454 601.598450,544.669739 
	C597.164917,546.946350 592.890442,549.007324 590.093506,553.647400 
	C588.830566,555.742615 585.669189,556.707214 583.343445,558.143127 
	C581.872620,559.051208 580.354309,559.882507 578.857361,560.748291 
	C578.238281,559.014221 577.565063,557.296570 577.029663,555.537048 
	C576.843994,554.926941 577.001343,554.212769 576.999817,553.546143 
	C576.985291,547.451538 568.378601,542.627136 562.974060,545.684082 
	C560.214722,547.244751 557.455688,548.806213 554.165955,550.667480 
	C554.189697,550.471436 553.948364,551.154541 554.060181,551.773987 
	C554.470947,554.049194 555.216553,556.173828 552.474121,557.814087 
	C549.603271,559.531189 547.495605,558.524475 545.229858,556.809448 
	C542.200073,554.516052 539.194092,552.144348 535.920227,550.251892 
	C535.056824,549.752808 533.245605,550.893311 531.869629,551.280884 
	C530.984192,550.781860 530.098755,550.282837 529.089355,549.077942 
	C529.306519,545.774536 529.910217,543.172729 529.868530,540.581299 
	C529.850098,539.428711 528.400635,537.249817 527.822144,537.321533 
	C523.200745,537.894714 518.632446,538.895752 514.047852,539.765686 
	C496.240387,529.023560 478.665833,517.870300 460.577881,507.623352 
	C420.783844,485.079651 377.965057,474.239655 332.174347,477.300018 
	C297.829742,479.595490 265.538666,489.675079 235.134018,505.794220 
	C233.425446,506.700043 231.658127,507.495056 229.728058,508.434113 
	C225.769165,414.163391 293.343048,285.978333 427.066650,241.850800 
	C568.522705,195.171646 720.446777,271.074493 776.532715,405.979187 
	C775.874756,410.574127 775.509888,414.495117 780.599487,415.902588 
	C780.599487,415.902588 780.593689,416.230743 780.349365,416.737610 
	C781.411438,422.240997 782.826538,427.212067 784.002380,432.239166 
	C786.771301,444.077087 789.783020,455.874969 792.015808,467.816345 
	C793.852417,477.638336 794.683777,487.647003 796.034912,497.562836 
	C796.200867,498.780762 796.825745,499.936157 797.238037,501.120514 
M468.527771,364.906219 
	C464.625549,361.660034 461.154602,357.569336 456.744720,355.317230 
	C439.731232,346.628632 422.080292,346.235077 404.314087,353.098938 
	C397.792145,355.618622 391.454956,358.579041 388.412781,366.187317 
	C389.330139,366.457367 390.247070,366.961670 391.164917,366.963318 
	C415.854340,367.007782 440.543976,367.024139 465.233154,366.932556 
	C466.464325,366.928009 467.691772,365.910614 468.527771,364.906219 
M383.123718,397.277252 
	C368.400696,392.206543 353.681213,392.512878 339.078430,397.628906 
	C332.350220,399.986084 326.307709,403.493164 322.156647,410.112793 
	C348.685516,410.112793 374.613586,410.112793 401.343109,410.112793 
	C396.299683,403.723053 390.375092,400.228790 383.123718,397.277252 
M488.499695,417.174225 
	C495.049072,417.174225 501.598450,417.174225 508.147797,417.174225 
	C495.228394,402.667725 478.907379,398.224426 460.821777,400.322144 
	C448.311584,401.773163 436.427887,405.561340 427.526886,417.176361 
	C448.297760,417.176361 467.898773,417.176361 488.499695,417.174225 
M549.637024,552.775757 
	C548.621826,552.590454 547.606628,552.405090 546.591431,552.219788 
	C546.616882,552.919373 546.642334,553.618896 546.667786,554.318481 
	C547.719910,554.032043 548.771973,553.745605 549.637024,552.775757 
z"/>
<path fill="#154A59" opacity="1.000000" stroke="none" 
	d="
M271.648315,605.670044 
	C288.971954,596.757507 305.558533,587.073059 323.059235,579.501465 
	C347.546997,568.906921 372.797058,568.085815 397.889954,578.492554 
	C399.059235,578.977478 400.343842,579.184387 402.544098,578.648987 
	C400.949463,576.337158 399.588226,573.814758 397.722565,571.747498 
	C384.869781,557.505859 368.182831,551.073364 349.628296,549.048706 
	C323.302612,546.176025 299.721680,554.728027 277.236572,567.324768 
	C264.352539,574.542725 251.500946,581.818604 237.673645,589.609985 
	C235.328781,578.685974 233.073425,568.858521 231.157898,558.965393 
	C230.215195,554.096619 228.060852,548.251221 229.840195,544.420105 
	C231.494156,540.859009 237.621429,539.343567 241.820679,537.001831 
	C264.920715,524.119812 289.009674,513.612915 315.229004,509.203522 
	C354.130432,502.661346 391.546265,508.443726 427.323364,524.756897 
	C457.136017,538.350464 484.215790,556.653259 511.522430,574.518677 
	C530.959473,587.235352 550.997253,598.698425 573.372253,605.494080 
	C578.745728,607.126038 584.230164,608.392700 590.934326,610.162903 
	C588.243103,611.364502 586.493652,612.327881 584.630188,612.950073 
	C559.197693,621.441956 533.077881,623.880371 506.739075,619.439697 
	C485.274719,615.820923 464.167908,610.134399 442.783966,605.974121 
	C402.081238,598.055542 363.330872,604.387390 326.375763,622.888916 
	C309.560547,631.307373 292.670990,639.582458 275.700439,647.682251 
	C271.553314,649.661621 266.954926,650.695557 262.198181,652.286438 
	C256.632416,640.562134 251.228119,629.178040 245.788040,617.718567 
	C254.541885,613.646057 262.930511,609.743469 271.648315,605.670044 
z"/>
<path fill="#144957" opacity="1.000000" stroke="none" 
	d="
M296.997131,706.007141 
	C296.646271,705.691956 296.295380,705.376709 295.927612,704.379761 
	C295.940460,702.798645 295.970215,701.899292 295.996277,700.663513 
	C294.995453,699.886353 293.998322,699.445618 292.639954,699.096313 
	C292.050201,699.285156 291.821747,699.382690 291.593292,699.480225 
	C291.593292,699.480225 291.640869,699.391296 291.721863,699.000977 
	C291.720337,695.859436 291.215576,693.592712 287.574036,694.923889 
	C287.574036,694.923889 287.236694,694.721863 287.383240,694.222412 
	C286.915710,693.188232 286.301697,692.653503 285.687683,692.118774 
	C285.358795,692.118042 285.127106,691.967651 284.973907,691.050415 
	C285.539124,688.998840 286.236969,687.597961 286.670715,686.119629 
	C287.014191,684.948975 287.033630,683.683289 287.232056,682.196899 
	C284.470947,683.925903 282.816223,684.962097 281.161499,685.998352 
	C281.161499,685.998352 280.868530,685.828247 280.897247,685.212585 
	C282.182831,682.270142 283.439697,679.943420 284.696594,677.616638 
	C284.696594,677.616638 284.884216,677.657288 285.254700,677.768738 
	C287.240997,677.911133 288.861725,678.036255 290.471558,677.952148 
	C293.215271,677.808899 293.234985,676.310913 292.104187,674.348938 
	C292.104187,674.348938 292.372559,674.157349 292.728394,674.327576 
	C293.377563,674.361206 293.670898,674.224609 294.313171,674.059204 
	C295.441254,673.387512 296.220367,672.744629 296.999512,672.101685 
	C296.999542,672.101746 297.349030,671.906250 297.938965,671.929199 
	C299.685974,671.322144 300.843048,670.692078 302.000153,670.062073 
	C303.760895,669.079285 305.521637,668.096497 307.768311,667.221436 
	C308.802032,666.834412 309.349854,666.339661 309.897705,665.844910 
	C309.897705,665.844910 309.960510,665.946655 310.330444,665.950928 
	C314.426788,666.400391 317.414093,665.585205 318.436066,661.418701 
	C318.436066,661.418701 318.534698,661.456360 318.924011,661.573669 
	C320.845581,660.749634 322.377869,659.808289 323.910156,658.866882 
	C323.910156,658.866882 323.955933,658.958923 324.142578,658.879517 
	C324.632660,658.655029 324.852631,658.428650 324.989075,658.121155 
	C324.989075,658.121155 325.392639,657.972046 325.850952,657.885132 
	C326.537109,657.555847 326.764923,657.313538 326.992737,657.071228 
	C342.947662,647.573975 360.011078,640.759216 378.002350,636.302673 
	C382.642548,635.153259 387.452911,634.690979 392.891327,634.263306 
	C400.049500,634.116760 406.501465,633.619934 412.953430,633.123047 
	C415.346588,633.123779 417.739716,633.124573 420.689178,633.598755 
	C423.899384,634.353455 426.553284,634.634705 429.207184,634.915955 
	C437.460846,636.336304 445.763824,637.520630 453.956726,639.231995 
	C466.403656,641.831909 478.723938,645.050781 491.193604,647.525146 
	C500.612579,649.394104 510.145447,651.337952 519.692078,651.747681 
	C531.188232,652.241150 542.795166,651.632751 554.277832,650.628723 
	C573.125366,648.980652 591.293457,644.253235 608.548401,636.365845 
	C625.636780,628.554565 642.451721,620.103577 659.764587,612.833313 
	C698.460693,596.583557 737.868469,595.069702 777.694885,608.777283 
	C779.374817,609.355469 781.021179,610.031372 783.781555,611.078430 
	C775.969727,627.457886 768.687500,643.463318 760.599609,659.050598 
	C759.022278,662.090515 754.405762,663.660522 751.037048,665.647522 
	C714.219727,687.364685 674.891663,695.614685 632.525574,687.770203 
	C617.969788,685.075073 603.356201,682.692078 588.295776,679.885315 
	C587.553650,679.688110 587.284668,679.772034 587.015747,679.856079 
	C583.273682,679.631836 579.531616,679.407654 575.141235,678.802490 
	C572.674072,678.547424 570.855164,678.673218 569.036255,678.799072 
	C565.315002,678.856689 561.593750,678.914246 557.148315,678.652283 
	C554.622131,678.524658 552.820129,678.716675 551.018127,678.908691 
	C534.107971,681.967773 517.192566,684.998413 500.294128,688.121277 
	C498.123230,688.522522 496.040894,689.402954 493.481049,689.615784 
	C493.029724,687.007080 493.006012,684.843994 493.001465,682.680908 
	C492.978821,671.933655 493.885223,673.043274 483.381958,672.989807 
	C476.180206,672.953186 474.959045,671.815308 473.942596,664.744507 
	C473.289886,660.204041 472.627899,655.843994 466.079742,656.679688 
	C464.777557,656.845825 463.220612,654.553894 461.692261,653.527893 
	C459.831512,652.278809 457.920959,650.255737 455.954834,650.160461 
	C447.985992,649.774597 439.987518,650.000061 431.730652,649.713806 
	C425.780304,648.612793 420.086578,647.873230 414.428925,646.919495 
	C413.296326,646.728516 411.744965,645.931091 411.404633,645.029114 
	C411.085541,644.183716 412.085266,642.816528 412.560120,641.702637 
	C412.991882,640.689819 413.498260,639.708862 414.052551,638.544067 
	C412.921692,638.300293 412.432495,638.064636 412.312836,638.187866 
	C408.243561,642.378967 400.000519,639.214050 397.617767,646.493591 
	C397.483490,646.903809 395.904083,646.665527 395.329437,647.135376 
	C391.321442,650.412659 383.351410,646.233276 381.846954,654.278809 
	C381.785858,654.605591 380.685333,654.949341 380.081451,654.928406 
	C376.545471,654.805847 372.934998,655.842651 369.798981,652.615540 
	C368.565765,651.346497 364.697968,650.655762 363.607086,651.574524 
	C358.971527,655.478394 354.816010,655.247070 350.345428,651.718872 
	C349.970825,651.423157 349.345642,651.073608 348.987762,651.194824 
	C347.702454,651.629944 346.481964,652.256470 345.237000,652.810608 
	C345.829102,653.869873 346.172882,655.327515 347.074799,655.889709 
	C348.259521,656.628357 349.870819,656.738953 351.321594,656.983887 
	C355.715881,657.725891 360.141327,658.302979 364.505585,659.186646 
	C365.403748,659.368469 366.499084,660.461304 366.807159,661.370300 
	C368.990540,667.812195 366.632141,670.993103 359.848694,670.999878 
	C358.849579,671.000916 357.847015,671.054321 356.851959,670.990967 
	C352.553680,670.717224 350.930115,672.780396 350.944458,676.990173 
	C350.967285,683.696411 347.519714,686.867859 340.938965,687.036194 
	C336.481110,687.150208 332.031738,687.804749 327.579132,687.798340 
	C326.099518,687.796204 324.352631,686.776672 323.213013,685.705994 
	C321.865540,684.440002 321.364990,681.824707 319.911560,681.232849 
	C318.099457,680.494995 315.405762,680.607666 313.592224,681.440613 
	C308.665619,683.703186 304.510864,684.273743 301.955231,678.288574 
	C297.504120,685.248474 305.315613,689.595764 304.343262,695.675964 
	C305.582794,695.813904 306.386932,695.955139 307.195221,695.985229 
	C313.987793,696.237671 313.988129,696.231567 313.999878,703.001770 
	C314.001007,703.667847 314.000000,704.333923 313.578796,705.000000 
	C308.689087,703.649292 304.220551,702.298584 299.216949,700.786133 
	C299.593964,702.815002 299.796967,703.907532 299.704742,705.125610 
	C298.605377,705.503174 297.801239,705.755127 296.997131,706.007141 
M320.437195,670.747986 
	C321.710632,671.663513 322.870422,672.841064 324.276398,673.451050 
	C332.158447,676.870667 337.401917,673.616760 336.927704,665.569031 
	C336.841644,664.108643 335.879974,661.518127 335.239227,661.492065 
	C333.255737,661.411133 330.901276,661.835449 329.295135,662.941345 
	C326.253387,665.035767 323.632080,667.740845 320.437195,670.747986 
z"/>
<path fill="#144857" opacity="1.000000" stroke="none" 
	d="
M630.109985,782.252563 
	C613.223206,791.093018 595.044678,796.379639 576.679749,800.815002 
	C527.909668,812.593750 479.431732,810.899902 431.574341,795.859558 
	C419.380737,792.027466 407.601532,786.874146 395.647430,782.287476 
	C394.621155,781.893738 393.711731,781.195435 392.208160,780.326660 
	C398.073944,777.896118 403.727753,776.280151 408.632233,773.391785 
	C427.106018,762.512146 445.427765,751.366089 463.631409,740.038452 
	C482.055786,728.573486 501.095520,718.589722 522.391602,713.565735 
	C538.655457,709.728882 555.142090,707.468811 571.829407,708.973755 
	C582.839111,709.966675 593.739319,712.168579 604.691162,713.811707 
	C606.099121,714.023010 607.522766,714.129395 608.658081,714.623901 
	C606.564270,715.501709 604.598022,715.772827 603.002686,716.689514 
	C602.188965,717.156982 601.422913,719.043945 601.749756,719.820007 
	C602.154297,720.780518 603.749207,721.884399 604.770935,721.829529 
	C609.400879,721.580933 614.010132,720.945679 619.117004,720.396973 
	C617.853027,718.615723 616.927856,717.312012 616.002747,716.008301 
	C620.327209,716.572876 624.673706,717.007507 628.970764,717.734070 
	C634.605469,718.686646 640.157715,720.279175 645.821472,720.882263 
	C670.234375,723.481873 694.109741,720.474060 717.553711,713.440125 
	C719.094421,712.977844 720.780029,712.998474 723.210388,713.830750 
	C716.392944,720.509521 709.575500,727.188293 702.407959,733.606567 
	C705.428650,728.134521 708.799316,722.922974 712.288635,717.528137 
	C712.513733,717.799683 712.325256,717.361084 712.101013,717.342041 
	C711.465698,717.287964 710.807739,717.357056 710.172852,717.462830 
	C699.136536,719.301514 688.066833,720.968567 677.085144,723.090820 
	C672.591492,723.959290 667.395752,721.073059 663.540405,725.555786 
	C663.244446,725.899963 661.962158,725.979553 661.705505,725.686035 
	C657.930359,721.369019 653.980896,726.931641 650.125793,725.521057 
	C649.819458,725.409058 648.254456,727.178406 648.328674,727.975159 
	C648.423706,728.994507 649.393555,730.309265 650.342041,730.779541 
	C651.607361,731.406799 653.214539,731.344543 654.674866,731.578430 
	C654.682556,732.064453 654.690247,732.550537 654.697998,733.036621 
	C652.577148,733.508362 650.010925,733.404480 648.455994,734.607605 
	C646.773254,735.909546 646.034119,738.430969 644.882202,740.419678 
	C642.175781,733.926392 640.249939,733.552979 633.131836,734.240906 
	C627.527954,734.782410 621.647644,733.984314 616.082153,732.843933 
	C612.623230,732.135193 609.656982,728.723694 606.227722,728.239990 
	C601.569519,727.583008 596.670776,728.868469 591.893555,728.721680 
	C589.363770,728.644043 586.008240,728.052124 584.543396,726.370300 
	C581.425110,722.790283 577.348938,720.555603 572.813232,722.134521 
	C568.703796,723.565063 570.360962,727.366333 570.013489,730.295044 
	C569.915955,731.117310 570.265625,732.115723 569.910950,732.757446 
	C569.268188,733.920532 568.323792,735.698303 567.376953,735.782959 
	C561.971375,736.265808 556.504822,736.707703 551.106201,736.381104 
	C547.975403,736.191772 546.126465,736.892090 545.662720,739.822571 
	C545.173889,742.911865 545.127625,746.079956 545.014587,749.218140 
	C544.775330,755.862366 541.660583,758.866821 535.176453,759.067139 
	C532.811890,759.140198 528.501587,759.791504 528.433777,760.500061 
	C527.932434,765.737244 526.276306,772.454956 528.787720,776.047913 
	C533.561218,782.877197 541.328735,787.040588 549.412659,790.289001 
	C552.953003,791.711670 556.448730,791.815308 559.842590,792.755493 
	C569.614929,795.462769 579.093933,799.989502 589.136230,793.858215 
	C589.553162,793.603699 590.075806,793.357056 590.540955,793.371582 
	C597.960938,793.603088 604.900330,792.557068 610.260925,786.643555 
	C610.791260,786.058655 612.133667,786.244141 613.078979,785.995300 
	C617.330200,784.876526 621.559448,783.669800 625.829224,782.628357 
	C627.204834,782.292847 628.680237,782.366272 630.109985,782.252563 
z"/>
<path fill="#154A5A" opacity="1.000000" stroke="none" 
	d="
M432.000000,650.000000 
	C439.987518,650.000061 447.985992,649.774597 455.954834,650.160461 
	C457.920959,650.255737 459.831512,652.278809 461.692261,653.527893 
	C463.220612,654.553894 464.777557,656.845825 466.079742,656.679688 
	C472.627899,655.843994 473.289886,660.204041 473.942596,664.744507 
	C474.959045,671.815308 476.180206,672.953186 483.381958,672.989807 
	C493.885223,673.043274 492.978821,671.933655 493.001465,682.680908 
	C493.006012,684.843994 493.029724,687.007080 493.078979,689.643799 
	C493.113342,690.117432 493.087799,690.068298 492.700500,690.053772 
	C490.905518,690.742371 489.497864,691.445557 488.090240,692.148743 
	C488.090240,692.148743 488.036072,692.053528 487.722351,692.013428 
	C484.546753,690.778503 484.283997,689.491516 486.821838,687.381042 
	C487.831207,686.541809 488.467926,684.639221 488.355713,683.297485 
	C488.288666,682.495361 486.126892,681.032837 485.461243,681.291870 
	C484.115173,681.815796 482.557800,683.124390 482.142609,684.441895 
	C481.220032,687.369629 480.947571,690.502258 480.415070,693.522949 
	C478.666077,693.899170 476.909393,693.922119 475.512634,694.642700 
	C470.921814,697.011169 466.323120,699.419983 461.999512,702.231628 
	C459.094910,704.120422 456.650757,706.717346 454.000549,708.997437 
	C453.548187,709.349609 453.095795,709.701782 452.158478,709.822388 
	C444.369659,709.761353 438.526794,713.781982 436.108215,720.301880 
	C435.797882,720.612183 435.487579,720.922485 434.540710,721.185791 
	C432.276276,722.437927 430.648376,723.737000 429.020508,725.036072 
	C429.020508,725.036072 429.006470,724.995239 428.608887,725.005676 
	C427.205536,725.891479 426.199738,726.766907 425.193939,727.642334 
	C420.885925,730.444397 416.577881,733.246460 411.618042,736.138550 
	C410.656494,736.520020 410.346771,736.811462 410.037048,737.102905 
	C410.037079,737.102966 410.038818,737.024292 409.853333,737.099243 
	C409.378601,737.309265 409.165009,737.520691 409.027039,737.808533 
	C409.027039,737.808533 408.773560,738.123779 408.155090,738.091003 
	C405.533997,738.698181 403.470367,739.193787 401.541718,740.008789 
	C397.758789,741.607117 394.133362,743.606323 390.290039,745.026245 
	C386.059845,746.589111 383.549011,744.617371 383.024750,740.306335 
	C382.543213,736.346497 380.255737,735.004272 376.564941,734.956238 
	C374.627716,734.931091 372.049957,735.127075 370.885345,734.030090 
	C367.555725,730.893738 363.725311,730.676697 359.719543,731.050293 
	C355.954803,731.401367 354.476868,729.997009 354.984131,726.266357 
	C355.497040,722.494324 354.009216,720.668945 349.961365,720.947449 
	C346.376892,721.194214 344.916718,719.067810 344.979309,715.631348 
	C345.002502,714.357849 336.504761,703.384644 335.306976,703.318787 
	C333.702545,703.230469 332.059692,703.480408 330.460510,703.747803 
	C328.510956,704.073792 326.603516,704.829956 324.652985,704.934021 
	C321.000153,705.129028 319.738770,701.542114 321.399109,700.116882 
	C325.326874,696.744995 328.862305,693.163757 332.306732,689.337708 
	C333.102783,688.453491 336.641022,689.849365 338.845856,690.455994 
	C346.662720,692.606689 355.115906,687.692200 354.851807,680.502686 
	C354.666992,675.471191 356.747742,674.472046 360.948120,674.978882 
	C362.096802,675.117432 363.276489,674.992676 364.441895,675.000366 
	C368.710724,675.028625 370.927399,672.934448 370.993958,668.644470 
	C371.022339,666.813477 371.156311,664.965454 370.967407,663.153870 
	C370.616028,659.784546 372.123840,658.663208 375.307343,658.969055 
	C377.121918,659.143372 379.136322,659.467834 380.756775,658.882751 
	C382.906433,658.106628 386.142609,656.794983 386.471466,655.207825 
	C387.340942,651.011108 389.780609,650.946594 392.989777,650.966125 
	C401.349854,651.017151 401.514465,650.834534 404.259033,641.915771 
	C405.540680,644.030090 406.107941,645.493408 407.120361,646.515808 
	C408.745911,648.157471 411.181885,651.097961 412.374084,650.711182 
	C418.191559,648.824158 423.691986,649.500549 429.346252,650.922852 
	C430.105408,651.113770 431.109406,650.331543 432.000000,650.000000 
z"/>
<path fill="#12495B" opacity="1.000000" stroke="none" 
	d="
M630.435791,782.222778 
	C628.680237,782.366272 627.204834,782.292847 625.829224,782.628357 
	C621.559448,783.669800 617.330200,784.876526 613.078979,785.995300 
	C612.133667,786.244141 610.791260,786.058655 610.260925,786.643555 
	C604.900330,792.557068 597.960938,793.603088 590.540955,793.371582 
	C590.075806,793.357056 589.553162,793.603699 589.136230,793.858215 
	C579.093933,799.989502 569.614929,795.462769 559.842590,792.755493 
	C556.448730,791.815308 552.953003,791.711670 549.412659,790.289001 
	C541.328735,787.040588 533.561218,782.877197 528.787720,776.047913 
	C526.276306,772.454956 527.932434,765.737244 528.433777,760.500061 
	C528.501587,759.791504 532.811890,759.140198 535.176453,759.067139 
	C541.660583,758.866821 544.775330,755.862366 545.014587,749.218140 
	C545.127625,746.079956 545.173889,742.911865 545.662720,739.822571 
	C546.126465,736.892090 547.975403,736.191772 551.106201,736.381104 
	C556.504822,736.707703 561.971375,736.265808 567.376953,735.782959 
	C568.323792,735.698303 569.268188,733.920532 569.910950,732.757446 
	C570.265625,732.115723 569.915955,731.117310 570.013489,730.295044 
	C570.360962,727.366333 568.703796,723.565063 572.813232,722.134521 
	C577.348938,720.555603 581.425110,722.790283 584.543396,726.370300 
	C586.008240,728.052124 589.363770,728.644043 591.893555,728.721680 
	C596.670776,728.868469 601.569519,727.583008 606.227722,728.239990 
	C609.656982,728.723694 612.623230,732.135193 616.082153,732.843933 
	C621.647644,733.984314 627.527954,734.782410 633.131836,734.240906 
	C640.249939,733.552979 642.175781,733.926392 644.882202,740.419678 
	C646.034119,738.430969 646.773254,735.909546 648.455994,734.607605 
	C650.010925,733.404480 652.577148,733.508362 654.697998,733.036621 
	C654.690247,732.550537 654.682556,732.064453 654.674866,731.578430 
	C653.214539,731.344543 651.607361,731.406799 650.342041,730.779541 
	C649.393555,730.309265 648.423706,728.994507 648.328674,727.975159 
	C648.254456,727.178406 649.819458,725.409058 650.125793,725.521057 
	C653.980896,726.931641 657.930359,721.369019 661.705505,725.686035 
	C661.962158,725.979553 663.244446,725.899963 663.540405,725.555786 
	C667.395752,721.073059 672.591492,723.959290 677.085144,723.090820 
	C688.066833,720.968567 699.136536,719.301514 710.172852,717.462830 
	C710.807739,717.357056 711.465698,717.287964 712.101013,717.342041 
	C712.325256,717.361084 712.513733,717.799683 712.288635,717.528137 
	C708.799316,722.922974 705.428650,728.134521 702.093384,733.731201 
	C702.128906,734.116394 702.095825,734.055786 701.872314,734.159180 
	C701.448914,734.556519 701.249146,734.850403 701.049316,735.144348 
	C701.035217,735.488037 700.881348,735.749512 700.112427,736.084290 
	C699.439148,736.525513 699.241028,736.811157 699.042908,737.096863 
	C699.042908,737.096863 699.022034,737.021118 698.820923,737.122742 
	C698.412170,737.486755 698.204529,737.749084 697.996887,738.011475 
	C697.323059,738.585876 696.649292,739.160278 695.535278,739.471619 
	C694.472351,738.542358 693.849548,737.876160 692.527832,736.462402 
	C691.934326,739.293823 691.518005,741.279846 691.101685,743.265869 
	C691.123413,743.616394 690.971985,743.858582 690.162842,744.121948 
	C689.473511,744.547668 689.268555,744.843811 689.063599,745.139893 
	C689.063599,745.139893 689.056274,745.051575 688.850098,745.143433 
	C688.427856,745.503357 688.211853,745.771484 687.995789,746.039551 
	C687.251221,746.661682 686.506653,747.283875 685.047607,747.969604 
	C680.334595,747.571899 677.577454,748.550598 678.135986,753.375488 
	C677.666687,753.896545 677.197449,754.417664 676.207764,755.084106 
	C675.462830,755.500000 675.238220,755.770569 675.013550,756.041138 
	C674.583069,756.341614 674.152527,756.642090 673.202759,757.088196 
	C672.453552,757.507202 672.223572,757.780457 671.993591,758.053711 
	C671.993591,758.053711 671.652588,758.193542 671.124084,758.153687 
	C670.063354,758.750366 669.531128,759.386841 668.998840,760.023315 
	C668.998840,760.023315 668.658325,760.185181 668.085449,760.122070 
	C666.722900,760.777832 665.933289,761.496643 665.143677,762.215454 
	C665.143616,762.215393 665.087463,762.104370 664.764709,762.090332 
	C663.666382,762.777039 662.890808,763.477722 662.115173,764.178406 
	C662.115173,764.178406 662.090454,764.082397 661.879150,764.174072 
	C661.471252,764.561951 661.274658,764.858154 661.078125,765.154358 
	C661.078064,765.154358 661.064392,765.066895 660.866516,765.140564 
	C660.355286,765.371643 660.135254,765.613892 660.008667,765.940979 
	C660.008667,765.940979 659.623413,766.082581 659.159546,766.156250 
	C658.463440,766.496338 658.231262,766.762878 657.999084,767.029358 
	C656.958862,767.735840 655.918640,768.442322 654.290466,769.186523 
	C653.467346,769.486389 653.232117,769.748535 652.996887,770.010681 
	C652.996887,770.010681 652.619080,770.133423 652.098083,769.986084 
	C648.817566,768.458618 649.063843,770.418274 649.062012,772.102295 
	C649.062012,772.102295 649.027100,772.022766 648.835449,772.112915 
	C648.343933,772.365479 648.132690,772.605835 648.010010,772.924072 
	C648.010010,772.924072 647.595276,773.049866 647.134583,773.130127 
	C646.450928,773.460693 646.228027,773.710876 646.005066,773.961121 
	C646.005066,773.961121 645.618469,774.089539 645.158264,774.156067 
	C644.465210,774.484253 644.232361,774.745850 643.999451,775.007446 
	C643.999451,775.007446 643.619751,775.117859 643.112061,775.099304 
	C642.069458,775.595520 641.534546,776.110352 640.999634,776.625183 
	C640.999634,776.625183 640.625366,776.952087 640.066040,777.006775 
	C639.002991,777.383057 638.499390,777.704651 637.995728,778.026245 
	C637.995728,778.026245 637.623657,778.133728 637.167969,778.181641 
	C636.473267,778.497070 636.234314,778.764587 635.995361,779.032043 
	C635.995361,779.032043 635.646729,779.174316 635.121704,779.139648 
	C634.057068,779.711792 633.517456,780.318604 632.977844,780.925415 
	C632.239075,781.347961 631.500305,781.770508 630.435791,782.222778 
z"/>
<path fill="#1C9BB2" opacity="1.000000" stroke="none" 
	d="
M651.926331,527.536255 
	C651.844666,528.025879 651.899292,528.860901 651.661499,528.954712 
	C645.022278,531.573425 639.891968,538.294739 631.429688,536.104309 
	C629.190063,535.524597 625.299561,535.649353 626.364868,539.254517 
	C627.046570,541.561218 630.313782,543.856812 632.891541,544.671692 
	C636.641296,545.857117 640.851318,545.505920 644.784302,546.241821 
	C645.962219,546.462219 646.788269,548.231689 647.923157,549.098022 
	C649.324097,550.167419 650.851624,551.709106 652.376465,551.771423 
	C653.547485,551.819275 655.407104,550.119751 655.898865,548.801270 
	C657.268066,545.130493 660.130127,544.902466 663.169556,545.033325 
	C668.205566,545.250305 672.990662,545.397705 674.353271,538.835571 
	C674.517395,538.045532 676.417603,537.081482 677.484924,537.114380 
	C680.610840,537.210632 683.767944,537.571289 686.811584,538.269714 
	C687.716675,538.477417 688.778625,540.072876 688.932617,541.151794 
	C690.073730,549.145813 691.015381,557.168457 691.988403,565.185913 
	C692.146362,566.487122 692.148926,567.807129 692.255798,569.689819 
	C694.300232,569.783875 696.226379,570.034973 698.133789,569.933411 
	C709.372009,569.334351 720.606323,568.660828 731.841064,567.996521 
	C736.795715,567.703613 741.747559,567.361450 746.702393,567.070374 
	C747.695740,567.012024 748.716858,566.962219 749.689636,567.123169 
	C751.179565,567.369690 752.638794,567.802612 754.111023,568.156433 
	C753.903320,566.112427 754.057556,563.947632 753.423096,562.046021 
	C751.123413,555.152893 751.777222,555.780334 757.668335,551.522461 
	C761.313599,548.887817 762.972778,543.513245 768.456360,542.500122 
	C768.883301,542.421265 768.952454,539.745300 768.976685,538.272888 
	C769.045166,534.109741 768.619873,529.891174 769.190674,525.806396 
	C769.426208,524.120789 771.707275,521.449951 773.058655,521.449585 
	C776.087769,521.448730 777.651184,523.817810 776.812073,527.069153 
	C776.439392,528.513184 775.286865,530.000977 775.504944,531.298157 
	C775.882202,533.542908 776.420227,536.614502 777.999634,537.653198 
	C784.292603,541.791748 786.544861,545.296814 784.729858,551.985413 
	C783.615845,556.090759 782.179016,559.858887 784.745117,563.900696 
	C785.165955,564.563538 784.874939,565.894714 784.546082,566.780884 
	C782.811584,571.455139 784.918274,574.394348 789.725708,577.270691 
	C790.854004,570.599976 792.015686,564.405334 792.914429,558.172729 
	C793.479919,554.251160 793.736511,550.278015 793.984802,546.318787 
	C794.881287,532.022034 795.715515,517.721375 796.910034,503.145844 
	C797.514465,505.372162 798.040833,507.878571 798.004578,510.376862 
	C797.855896,520.636047 797.855469,530.914368 797.163940,541.142639 
	C796.721375,547.687866 795.065979,554.143677 794.135010,560.665344 
	C793.122864,567.755432 792.320007,574.875305 791.377380,582.367676 
	C783.216980,580.055786 775.677673,577.786804 768.066895,575.790161 
	C749.489746,570.916870 730.482483,568.229492 711.458801,570.630554 
	C694.258484,572.801514 677.142700,576.469666 660.350403,580.857971 
	C633.249451,587.940308 607.157776,583.947021 581.214355,575.874207 
	C563.661499,570.412231 547.563660,561.869690 532.037964,551.574951 
	C533.245605,550.893311 535.056824,549.752808 535.920227,550.251892 
	C539.194092,552.144348 542.200073,554.516052 545.229858,556.809448 
	C547.495605,558.524475 549.603271,559.531189 552.474121,557.814087 
	C555.216553,556.173828 554.470947,554.049194 554.060181,551.773987 
	C553.948364,551.154541 554.189697,550.471436 554.165955,550.667480 
	C557.455688,548.806213 560.214722,547.244751 562.974060,545.684082 
	C568.378601,542.627136 576.985291,547.451538 576.999817,553.546143 
	C577.001343,554.212769 576.843994,554.926941 577.029663,555.537048 
	C577.565063,557.296570 578.238281,559.014221 578.857361,560.748291 
	C580.354309,559.882507 581.872620,559.051208 583.343445,558.143127 
	C585.669189,556.707214 588.830566,555.742615 590.093506,553.647400 
	C592.890442,549.007324 597.164917,546.946350 601.598450,544.669739 
	C602.508423,544.202454 602.540588,542.049133 603.004150,540.682007 
	C603.397583,539.521423 603.829590,538.373962 604.244568,537.220703 
	C605.563110,537.716125 607.241760,537.859314 608.134033,538.771667 
	C611.046570,541.749817 614.226379,541.296570 618.322571,540.246643 
	C616.321655,536.418762 614.521790,532.972900 612.716309,529.529968 
	C612.640320,529.385010 612.528687,529.170105 612.407227,529.150391 
	C607.935547,528.424194 603.481018,527.443848 598.978760,527.109314 
	C596.238831,526.905823 593.424561,527.702515 590.643677,528.049866 
	C590.409729,524.940125 590.175781,521.830383 590.359009,518.378052 
	C593.449219,519.347290 596.067566,520.788208 598.804504,521.949707 
	C615.934265,529.219360 633.704956,530.560669 651.926331,527.536255 
z"/>
<path fill="#154A59" opacity="1.000000" stroke="none" 
	d="
M431.730682,649.713867 
	C431.109406,650.331543 430.105408,651.113770 429.346252,650.922852 
	C423.691986,649.500549 418.191559,648.824158 412.374084,650.711182 
	C411.181885,651.097961 408.745911,648.157471 407.120361,646.515808 
	C406.107941,645.493408 405.540680,644.030090 404.259033,641.915771 
	C401.514465,650.834534 401.349854,651.017151 392.989777,650.966125 
	C389.780609,650.946594 387.340942,651.011108 386.471466,655.207825 
	C386.142609,656.794983 382.906433,658.106628 380.756775,658.882751 
	C379.136322,659.467834 377.121918,659.143372 375.307343,658.969055 
	C372.123840,658.663208 370.616028,659.784546 370.967407,663.153870 
	C371.156311,664.965454 371.022339,666.813477 370.993958,668.644470 
	C370.927399,672.934448 368.710724,675.028625 364.441895,675.000366 
	C363.276489,674.992676 362.096802,675.117432 360.948120,674.978882 
	C356.747742,674.472046 354.666992,675.471191 354.851807,680.502686 
	C355.115906,687.692200 346.662720,692.606689 338.845856,690.455994 
	C336.641022,689.849365 333.102783,688.453491 332.306732,689.337708 
	C328.862305,693.163757 325.326874,696.744995 321.399109,700.116882 
	C319.738770,701.542114 321.000153,705.129028 324.652985,704.934021 
	C326.603516,704.829956 328.510956,704.073792 330.460510,703.747803 
	C332.059692,703.480408 333.702545,703.230469 335.306976,703.318787 
	C336.504761,703.384644 345.002502,714.357849 344.979309,715.631348 
	C344.916718,719.067810 346.376892,721.194214 349.961365,720.947449 
	C354.009216,720.668945 355.497040,722.494324 354.984131,726.266357 
	C354.476868,729.997009 355.954803,731.401367 359.719543,731.050293 
	C363.725311,730.676697 367.555725,730.893738 370.885345,734.030090 
	C372.049957,735.127075 374.627716,734.931091 376.564941,734.956238 
	C380.255737,735.004272 382.543213,736.346497 383.024750,740.306335 
	C383.549011,744.617371 386.059845,746.589111 390.290039,745.026245 
	C394.133362,743.606323 397.758789,741.607117 401.541718,740.008789 
	C403.470367,739.193787 405.533997,738.698181 407.952850,738.090637 
	C391.240601,748.141663 372.960083,754.618652 353.039825,755.888672 
	C351.575867,755.981934 349.688873,755.371948 348.593414,754.410828 
	C334.893463,742.392029 321.303436,730.247986 307.675110,717.718872 
	C307.664948,717.301758 308.007477,716.992676 308.470093,716.995300 
	C312.053009,716.995667 315.190430,717.180664 318.285034,716.897583 
	C319.497284,716.786682 321.358032,715.855713 321.650909,714.905884 
	C323.368042,709.337585 319.901794,705.026917 314.000000,705.000000 
	C314.000000,704.333923 314.001007,703.667847 313.999878,703.001770 
	C313.988129,696.231567 313.987793,696.237671 307.195221,695.985229 
	C306.386932,695.955139 305.582794,695.813904 304.343262,695.675964 
	C305.315613,689.595764 297.504120,685.248474 301.955231,678.288574 
	C304.510864,684.273743 308.665619,683.703186 313.592224,681.440613 
	C315.405762,680.607666 318.099457,680.494995 319.911560,681.232849 
	C321.364990,681.824707 321.865540,684.440002 323.213013,685.705994 
	C324.352631,686.776672 326.099518,687.796204 327.579132,687.798340 
	C332.031738,687.804749 336.481110,687.150208 340.938965,687.036194 
	C347.519714,686.867859 350.967285,683.696411 350.944458,676.990173 
	C350.930115,672.780396 352.553680,670.717224 356.851959,670.990967 
	C357.847015,671.054321 358.849579,671.000916 359.848694,670.999878 
	C366.632141,670.993103 368.990540,667.812195 366.807159,661.370300 
	C366.499084,660.461304 365.403748,659.368469 364.505585,659.186646 
	C360.141327,658.302979 355.715881,657.725891 351.321594,656.983887 
	C349.870819,656.738953 348.259521,656.628357 347.074799,655.889709 
	C346.172882,655.327515 345.829102,653.869873 345.237000,652.810608 
	C346.481964,652.256470 347.702454,651.629944 348.987762,651.194824 
	C349.345642,651.073608 349.970825,651.423157 350.345428,651.718872 
	C354.816010,655.247070 358.971527,655.478394 363.607086,651.574524 
	C364.697968,650.655762 368.565765,651.346497 369.798981,652.615540 
	C372.934998,655.842651 376.545471,654.805847 380.081451,654.928406 
	C380.685333,654.949341 381.785858,654.605591 381.846954,654.278809 
	C383.351410,646.233276 391.321442,650.412659 395.329437,647.135376 
	C395.904083,646.665527 397.483490,646.903809 397.617767,646.493591 
	C400.000519,639.214050 408.243561,642.378967 412.312836,638.187866 
	C412.432495,638.064636 412.921692,638.300293 414.052551,638.544067 
	C413.498260,639.708862 412.991882,640.689819 412.560120,641.702637 
	C412.085266,642.816528 411.085541,644.183716 411.404633,645.029114 
	C411.744965,645.931091 413.296326,646.728516 414.428925,646.919495 
	C420.086578,647.873230 425.780304,648.612793 431.730682,649.713867 
M374.978516,748.832703 
	C376.256958,748.435059 377.535431,748.037415 378.813904,747.639832 
	C378.465607,746.612000 378.389465,745.021851 377.704224,744.690308 
	C376.716522,744.212341 375.286438,744.648560 374.045166,744.694641 
	C374.117310,745.961548 374.189484,747.228516 374.978516,748.832703 
M326.968536,720.118774 
	C326.994171,717.644958 326.605347,715.634460 322.462372,718.021729 
	C323.924652,718.962158 325.386932,719.902588 326.968536,720.118774 
M327.645203,729.198730 
	C327.298065,727.597839 326.950928,725.996948 326.603821,724.396057 
	C325.946808,724.652039 325.289795,724.908020 324.632782,725.164001 
	C325.452209,726.672791 326.271606,728.181580 327.645203,729.198730 
M317.450378,684.089294 
	C316.779022,684.532837 316.107635,684.976318 315.436279,685.419861 
	C316.185486,685.883667 316.934692,686.347534 317.683868,686.811340 
	C317.833710,685.969910 317.983551,685.128540 317.450378,684.089294 
z"/>
<path fill="#1C9BB2" opacity="1.000000" stroke="none" 
	d="
M797.552734,500.886841 
	C796.825745,499.936157 796.200867,498.780762 796.034912,497.562836 
	C794.683777,487.647003 793.852417,477.638336 792.015808,467.816345 
	C789.783020,455.874969 786.771301,444.077087 784.002380,432.239166 
	C782.826538,427.212067 781.411438,422.240997 780.191467,416.782379 
	C781.257690,418.352631 782.621521,420.289093 783.156372,422.432465 
	C787.327087,439.144775 791.338196,455.896912 795.274780,473.303131 
	C795.322815,474.282013 795.494629,474.594543 795.666504,474.907043 
	C796.125122,480.419098 796.577087,485.931702 797.044800,491.442993 
	C797.305420,494.514191 797.592346,497.583160 797.552734,500.886841 
z"/>
<path fill="#144957" opacity="1.000000" stroke="none" 
	d="
M454.351440,708.955627 
	C456.650757,706.717346 459.094910,704.120422 461.999512,702.231628 
	C466.323120,699.419983 470.921814,697.011169 475.512634,694.642700 
	C476.909393,693.922119 478.666077,693.899170 480.415070,693.522949 
	C480.947571,690.502258 481.220032,687.369629 482.142609,684.441895 
	C482.557800,683.124390 484.115173,681.815796 485.461243,681.291870 
	C486.126892,681.032837 488.288666,682.495361 488.355713,683.297485 
	C488.467926,684.639221 487.831207,686.541809 486.821838,687.381042 
	C484.283997,689.491516 484.546753,690.778503 487.772186,692.036133 
	C480.060394,696.074829 471.972198,700.025024 463.916077,704.039673 
	C460.807220,705.588928 457.771393,707.284729 454.351440,708.955627 
z"/>
<path fill="#1C9BB2" opacity="1.000000" stroke="none" 
	d="
M514.288818,540.018433 
	C518.632446,538.895752 523.200745,537.894714 527.822144,537.321533 
	C528.400635,537.249817 529.850098,539.428711 529.868530,540.581299 
	C529.910217,543.172729 529.306519,545.774536 528.937683,548.810791 
	C524.116516,546.256714 519.323181,543.263916 514.288818,540.018433 
z"/>
<path fill="#12495B" opacity="1.000000" stroke="none" 
	d="
M615.707947,715.972839 
	C616.927856,717.312012 617.853027,718.615723 619.117004,720.396973 
	C614.010132,720.945679 609.400879,721.580933 604.770935,721.829529 
	C603.749207,721.884399 602.154297,720.780518 601.749756,719.820007 
	C601.422913,719.043945 602.188965,717.156982 603.002686,716.689514 
	C604.598022,715.772827 606.564270,715.501709 608.789978,714.940002 
	C609.202942,714.916565 609.628174,714.919434 610.083618,715.266541 
	C611.768311,715.714050 612.997620,715.814392 614.226868,715.914795 
	C614.622314,715.922302 615.017700,715.929871 615.707947,715.972839 
z"/>
<path fill="#144957" opacity="1.000000" stroke="none" 
	d="
M436.448792,720.204041 
	C438.526794,713.781982 444.369659,709.761353 451.864197,709.858643 
	C446.966339,713.453003 441.877838,716.779602 436.448792,720.204041 
z"/>
<path fill="#154A59" opacity="1.000000" stroke="none" 
	d="
M297.099121,706.327148 
	C297.801239,705.755127 298.605377,705.503174 300.045959,705.175720 
	C303.124115,709.064392 305.565796,713.028564 308.007477,716.992676 
	C308.007477,716.992676 307.664948,717.301758 307.481873,717.442200 
	C303.932922,713.937500 300.567017,710.292358 297.099121,706.327148 
z"/>
<path fill="#154A5A" opacity="1.000000" stroke="none" 
	d="
M412.615723,633.015015 
	C406.501465,633.619934 400.049500,634.116760 393.308899,634.330566 
	C399.439484,633.667297 405.858765,633.287170 412.615723,633.015015 
z"/>
<path fill="#154A59" opacity="1.000000" stroke="none" 
	d="
M281.244659,686.315735 
	C282.816223,684.962097 284.470947,683.925903 287.232056,682.196899 
	C287.033630,683.683289 287.014191,684.948975 286.670715,686.119629 
	C286.236969,687.597961 285.539124,688.998840 284.930176,690.837097 
	C283.712708,689.705078 282.520264,688.169067 281.244659,686.315735 
z"/>
<path fill="#1C9BB2" opacity="1.000000" stroke="none" 
	d="
M780.592163,415.510803 
	C775.509888,414.495117 775.874756,410.574127 776.564575,406.335876 
	C778.067688,409.076813 779.326233,412.097931 780.592163,415.510803 
z"/>
<path fill="#154A59" opacity="1.000000" stroke="none" 
	d="
M284.314758,677.658569 
	C283.439697,679.943420 282.182831,682.270142 280.886841,685.043518 
	C279.672638,683.837036 278.497559,682.183899 277.088165,680.201172 
	C279.708923,679.243713 281.820953,678.472107 284.314758,677.658569 
z"/>
<path fill="#144857" opacity="1.000000" stroke="none" 
	d="
M678.500000,753.347839 
	C677.577454,748.550598 680.334595,747.571899 684.766174,748.054443 
	C683.087524,749.823853 680.975769,751.572021 678.500000,753.347839 
z"/>
<path fill="#154A59" opacity="1.000000" stroke="none" 
	d="
M291.776581,674.389221 
	C293.234985,676.310913 293.215271,677.808899 290.471558,677.952148 
	C288.861725,678.036255 287.240997,677.911133 285.159363,677.779846 
	C286.945343,676.596191 289.197174,675.512817 291.776581,674.389221 
z"/>
<path fill="#144857" opacity="1.000000" stroke="none" 
	d="
M691.424438,743.229370 
	C691.518005,741.279846 691.934326,739.293823 692.527832,736.462402 
	C693.849548,737.876160 694.472351,738.542358 695.221069,739.591187 
	C694.147095,741.046753 692.947144,742.119812 691.424438,743.229370 
z"/>
<path fill="#154A5A" opacity="1.000000" stroke="none" 
	d="
M429.045349,634.578003 
	C426.553284,634.634705 423.899384,634.353455 421.123169,633.713806 
	C423.628387,633.650330 426.255920,633.945190 429.045349,634.578003 
z"/>
<path fill="#154A59" opacity="1.000000" stroke="none" 
	d="
M318.107971,661.531372 
	C317.414093,665.585205 314.426788,666.400391 310.277283,665.923584 
	C312.496033,664.475952 315.137939,663.059998 318.107971,661.531372 
z"/>
<path fill="#154A59" opacity="1.000000" stroke="none" 
	d="
M287.727539,695.174683 
	C291.215576,693.592712 291.720337,695.859436 291.671661,699.005615 
	C290.320679,698.075623 289.100830,696.750549 287.727539,695.174683 
z"/>
<path fill="#144957" opacity="1.000000" stroke="none" 
	d="
M429.361145,724.979370 
	C430.648376,723.737000 432.276276,722.437927 434.307312,721.184448 
	C433.040894,722.460815 431.371368,723.691711 429.361145,724.979370 
z"/>
<path fill="#154A59" opacity="1.000000" stroke="none" 
	d="
M323.575439,658.930176 
	C322.377869,659.808289 320.845581,660.749634 318.949463,661.527466 
	C320.137329,660.573730 321.689026,659.783569 323.575439,658.930176 
z"/>
<path fill="#144957" opacity="1.000000" stroke="none" 
	d="
M488.462341,692.141968 
	C489.497864,691.445557 490.905518,690.742371 492.724182,690.067200 
	C491.701630,690.775208 490.268005,691.455200 488.462341,692.141968 
z"/>
<path fill="#154A5A" opacity="1.000000" stroke="none" 
	d="
M569.373901,678.899963 
	C570.855164,678.673218 572.674072,678.547424 574.735229,678.685913 
	C573.222229,678.967102 571.466858,678.984009 569.373901,678.899963 
z"/>
<path fill="#154A59" opacity="1.000000" stroke="none" 
	d="
M296.000000,701.000000 
	C295.970215,701.899292 295.940460,702.798645 295.862183,704.146118 
	C294.911255,703.631042 294.008850,702.667786 293.064880,701.339783 
	C293.023346,700.975098 293.114288,700.884338 293.472961,700.922913 
	C294.554413,700.974304 295.277191,700.987122 296.000000,701.000000 
z"/>
<path fill="#144857" opacity="1.000000" stroke="none" 
	d="
M649.398010,772.070984 
	C649.063843,770.418274 648.817566,768.458618 651.900085,769.970581 
	C651.393372,770.748169 650.563721,771.393921 649.398010,772.070984 
z"/>
<path fill="#154A5A" opacity="1.000000" stroke="none" 
	d="
M301.651978,669.990845 
	C300.843048,670.692078 299.685974,671.322144 298.139160,671.927612 
	C298.934235,671.241943 300.119019,670.580750 301.651978,669.990845 
z"/>
<path fill="#144957" opacity="1.000000" stroke="none" 
	d="
M425.521393,727.545593 
	C426.199738,726.766907 427.205536,725.891479 428.625244,725.020264 
	C427.975708,725.832642 426.912292,726.640747 425.521393,727.545593 
z"/>
<path fill="#154A5A" opacity="1.000000" stroke="none" 
	d="
M551.436401,678.996460 
	C552.820129,678.716675 554.622131,678.524658 556.690552,678.570007 
	C555.256226,678.899658 553.555481,678.992004 551.436401,678.996460 
z"/>
<path fill="#154A5A" opacity="1.000000" stroke="none" 
	d="
M296.672607,672.092041 
	C296.220367,672.744629 295.441254,673.387512 294.078430,674.028076 
	C293.494781,674.025757 293.020599,673.999268 293.020599,673.999268 
	C294.128967,673.360352 295.237335,672.721375 296.672607,672.092041 
z"/>
<path fill="#144857" opacity="1.000000" stroke="none" 
	d="
M614.112793,715.626587 
	C612.997620,715.814392 611.768311,715.714050 610.278992,715.350403 
	C611.345520,715.170898 612.672058,715.254700 614.112793,715.626587 
z"/>
<path fill="#144857" opacity="1.000000" stroke="none" 
	d="
M662.453003,764.169373 
	C662.890808,763.477722 663.666382,762.777039 664.820923,762.116943 
	C664.396851,762.825195 663.593811,763.492798 662.453003,764.169373 
z"/>
<path fill="#144857" opacity="1.000000" stroke="none" 
	d="
M665.493164,762.226746 
	C665.933289,761.496643 666.722900,760.777832 667.901001,760.082886 
	C667.473816,760.817200 666.658203,761.527588 665.493164,762.226746 
z"/>
<path fill="#144857" opacity="1.000000" stroke="none" 
	d="
M641.298950,776.577393 
	C641.534546,776.110352 642.069458,775.595520 642.915039,775.082886 
	C642.683167,775.566589 642.140686,776.048096 641.298950,776.577393 
z"/>
<path fill="#144857" opacity="1.000000" stroke="none" 
	d="
M633.297729,780.902222 
	C633.517456,780.318604 634.057068,779.711792 634.936890,779.103638 
	C634.723938,779.694519 634.170776,780.286743 633.297729,780.902222 
z"/>
<path fill="#154A59" opacity="1.000000" stroke="none" 
	d="
M309.599670,665.885986 
	C309.349854,666.339661 308.802032,666.834412 308.086975,667.072876 
	C308.380432,666.520081 308.841064,666.223633 309.599670,665.885986 
z"/>
<path fill="#144857" opacity="1.000000" stroke="none" 
	d="
M669.342407,760.093140 
	C669.531128,759.386841 670.063354,758.750366 670.944580,758.112122 
	C670.757690,758.794556 670.221802,759.478821 669.342407,760.093140 
z"/>
<path fill="#154A59" opacity="1.000000" stroke="none" 
	d="
M285.789001,692.365784 
	C286.301697,692.653503 286.915710,693.188232 287.320770,694.036011 
	C286.704620,693.770264 286.297485,693.191528 285.789001,692.365784 
z"/>
<path fill="#154A59" opacity="1.000000" stroke="none" 
	d="
M291.685272,699.734314 
	C291.821747,699.382690 292.050201,699.285156 292.644379,699.410583 
	C293.044800,700.050476 293.079559,700.467407 293.114288,700.884338 
	C293.114288,700.884338 293.023346,700.975098 292.977539,701.020020 
	C292.546936,700.706177 292.162079,700.347290 291.685272,699.734314 
z"/>
<path fill="#144857" opacity="1.000000" stroke="none" 
	d="
M638.318787,778.155396 
	C638.499390,777.704651 639.002991,777.383057 639.822632,777.056641 
	C639.639648,777.462769 639.140747,777.873657 638.318787,778.155396 
z"/>
<path fill="#144857" opacity="1.000000" stroke="none" 
	d="
M672.305786,758.113159 
	C672.223572,757.780457 672.453552,757.507202 672.943359,757.150635 
	C673.008179,757.435791 672.813110,757.804138 672.305786,758.113159 
z"/>
<path fill="#144857" opacity="1.000000" stroke="none" 
	d="
M675.319336,756.096985 
	C675.238220,755.770569 675.462830,755.500000 675.943726,755.147827 
	C676.008484,755.428467 675.816833,755.790649 675.319336,756.096985 
z"/>
<path fill="#144857" opacity="1.000000" stroke="none" 
	d="
M688.295044,746.084106 
	C688.211853,745.771484 688.427856,745.503357 688.893616,745.151611 
	C688.960388,745.421570 688.777405,745.775085 688.295044,746.084106 
z"/>
<path fill="#144857" opacity="1.000000" stroke="none" 
	d="
M661.338745,765.068359 
	C661.274658,764.858154 661.471252,764.561951 661.928223,764.180908 
	C661.992188,764.391479 661.795776,764.686951 661.338745,765.068359 
z"/>
<path fill="#144857" opacity="1.000000" stroke="none" 
	d="
M660.291931,765.995117 
	C660.135254,765.613892 660.355286,765.371643 660.910156,765.148193 
	C660.959473,765.404541 660.767334,765.726929 660.291931,765.995117 
z"/>
<path fill="#144857" opacity="1.000000" stroke="none" 
	d="
M658.306152,767.089722 
	C658.231262,766.762878 658.463440,766.496338 658.954346,766.152405 
	C659.013184,766.433350 658.813232,766.791748 658.306152,767.089722 
z"/>
<path fill="#144857" opacity="1.000000" stroke="none" 
	d="
M653.302124,770.077393 
	C653.232117,769.748535 653.467346,769.486389 653.960999,769.149414 
	C654.015442,769.431030 653.811401,769.787537 653.302124,770.077393 
z"/>
<path fill="#144857" opacity="1.000000" stroke="none" 
	d="
M648.291138,772.986328 
	C648.132690,772.605835 648.343933,772.365479 648.876221,772.127686 
	C648.929993,772.384460 648.751160,772.716492 648.291138,772.986328 
z"/>
<path fill="#144857" opacity="1.000000" stroke="none" 
	d="
M646.297668,774.023804 
	C646.228027,773.710876 646.450928,773.460693 646.917908,773.134155 
	C646.971375,773.400757 646.780823,773.743652 646.297668,774.023804 
z"/>
<path fill="#144857" opacity="1.000000" stroke="none" 
	d="
M636.304932,779.094116 
	C636.234314,778.764587 636.473267,778.497070 636.976074,778.155090 
	C637.031494,778.439087 636.823059,778.797607 636.304932,779.094116 
z"/>
<path fill="#144857" opacity="1.000000" stroke="none" 
	d="
M644.305420,775.082275 
	C644.232361,774.745850 644.465210,774.484253 644.954712,774.146851 
	C645.011414,774.433044 644.811401,774.795105 644.305420,775.082275 
z"/>
<path fill="#154A59" opacity="1.000000" stroke="none" 
	d="
M324.720337,658.082886 
	C324.852631,658.428650 324.632660,658.655029 324.095490,658.858948 
	C324.058380,658.626648 324.254974,658.335571 324.720337,658.082886 
z"/>
<path fill="#154A59" opacity="1.000000" stroke="none" 
	d="
M326.710632,657.039307 
	C326.764923,657.313538 326.537109,657.555847 326.065430,657.868042 
	C326.023865,657.627686 326.226196,657.317566 326.710632,657.039307 
z"/>
<path fill="#154A59" opacity="1.000000" stroke="none" 
	d="
M292.925781,674.001648 
	C293.020599,673.999268 293.494781,674.025757 293.729492,674.056885 
	C293.670898,674.224609 293.377563,674.361206 292.893097,674.320435 
	C292.701965,674.143127 292.830963,674.004028 292.925781,674.001648 
z"/>
<path fill="#1D9EB6" opacity="1.000000" stroke="none" 
	d="
M795.726196,474.621704 
	C795.494629,474.594543 795.322815,474.282013 795.148193,473.692261 
	C795.359009,473.722107 795.572449,474.029205 795.726196,474.621704 
z"/>
<path fill="#154A5A" opacity="1.000000" stroke="none" 
	d="
M587.254089,679.953857 
	C587.284668,679.772034 587.553650,679.688110 587.905884,679.759399 
	C587.823547,679.960327 587.657959,680.005981 587.254089,679.953857 
z"/>
<path fill="#144857" opacity="1.000000" stroke="none" 
	d="
M689.331238,745.058167 
	C689.268555,744.843811 689.473511,744.547668 689.938232,744.157959 
	C689.998352,744.368408 689.798645,744.672424 689.331238,745.058167 
z"/>
<path fill="#144857" opacity="1.000000" stroke="none" 
	d="
M701.309814,735.056274 
	C701.249146,734.850403 701.448914,734.556519 701.905273,734.169312 
	C701.964661,734.373474 701.767517,734.670837 701.309814,735.056274 
z"/>
<path fill="#154A59" opacity="1.000000" stroke="none" 
	d="
M410.362244,737.057861 
	C410.346771,736.811462 410.656494,736.520020 411.293213,736.184082 
	C411.309296,736.430664 410.998383,736.721802 410.362244,737.057861 
z"/>
<path fill="#144857" opacity="1.000000" stroke="none" 
	d="
M699.299377,737.011353 
	C699.241028,736.811157 699.439148,736.525513 699.883545,736.139893 
	C699.938538,736.335266 699.747192,736.630554 699.299377,737.011353 
z"/>
<path fill="#154A59" opacity="1.000000" stroke="none" 
	d="
M409.269897,737.795410 
	C409.165009,737.520691 409.378601,737.309265 409.889496,737.114746 
	C410.038818,737.402161 409.839355,737.644531 409.269897,737.795410 
z"/>
<path fill="#144857" opacity="1.000000" stroke="none" 
	d="
M698.286438,738.037537 
	C698.204529,737.749084 698.412170,737.486755 698.858521,737.134033 
	C698.923523,737.383728 698.749756,737.723694 698.286438,738.037537 
z"/>
<path fill="#FDFFFF" opacity="1.000000" stroke="none" 
	d="
M652.049194,527.584534 
	C633.704956,530.560669 615.934265,529.219360 598.804504,521.949707 
	C596.067566,520.788208 593.449219,519.347290 590.427307,517.975586 
	C590.078552,517.915649 590.052979,517.945557 589.909180,517.650391 
	C588.622986,516.754028 587.480530,516.152832 586.338135,515.551636 
	C586.338135,515.551636 586.378601,515.636780 586.211060,515.336487 
	C585.202271,514.528748 584.361023,514.021301 583.519714,513.513855 
	C583.519714,513.513855 583.440918,513.556213 583.306824,513.248047 
	C582.468262,512.598877 581.763733,512.257935 581.059265,511.916962 
	C581.059265,511.916962 581.000977,511.993103 580.934387,511.652100 
	C579.674255,510.432434 578.480652,509.553741 577.287109,508.675079 
	C577.287109,508.675079 577.185852,508.742126 577.167786,508.492310 
	C576.823730,508.068329 576.497803,507.894135 576.171814,507.719971 
	C576.171814,507.719971 576.138794,507.854980 576.124817,507.565063 
	C575.779236,507.108459 575.447693,506.941742 575.116150,506.775024 
	C575.116150,506.775024 575.084229,506.903442 575.069214,506.614380 
	C574.734314,506.108948 574.414368,505.892578 574.094421,505.676178 
	C574.102966,505.372253 573.975952,505.143707 573.399414,504.677521 
	C572.753357,504.179108 572.421265,503.993713 572.089172,503.808319 
	C572.089172,503.808319 572.082336,503.926056 572.067871,503.639099 
	C571.741943,503.167023 571.430542,502.981934 571.119141,502.796814 
	C571.119141,502.796814 571.098572,502.903198 571.078735,502.619110 
	C570.741882,502.155304 570.424866,501.975555 570.107849,501.795837 
	C570.107849,501.795837 570.089417,501.912872 570.076904,501.627533 
	C569.753845,501.152344 569.443359,500.962524 569.132812,500.772675 
	C569.132812,500.772675 569.111267,500.893463 569.099365,500.604462 
	C568.770325,500.131775 568.453308,499.948090 568.136230,499.764404 
	C568.136230,499.764404 568.116455,499.892944 568.119263,499.599670 
	C567.821228,499.107208 567.520386,498.908051 567.219543,498.708893 
	C567.219543,498.708893 567.199768,498.834106 567.201294,498.526306 
	C566.890259,498.033295 566.577759,497.848053 566.265198,497.662811 
	C566.265198,497.662811 566.353516,497.727661 566.290894,497.353302 
	C564.236816,494.419617 562.245361,491.860291 560.253845,489.300964 
	C557.020630,480.960327 552.976807,472.835571 550.688538,464.243256 
	C537.842529,416.007172 569.811707,367.221344 619.242676,359.066101 
	C658.524353,352.585297 695.519897,371.522308 711.789490,407.338318 
	C729.877014,447.156433 714.681519,498.332916 673.587158,519.482849 
	C667.623108,522.552368 661.054932,524.448181 654.042358,526.963013 
	C652.994812,527.302612 652.671204,527.566284 652.347656,527.830017 
	C652.347656,527.830017 652.172058,527.632812 652.049194,527.584534 
z"/>
<path fill="#EFFAFB" opacity="1.000000" stroke="none" 
	d="
M388.079468,365.357422 
	C391.454956,358.579041 397.792145,355.618622 404.314087,353.098938 
	C422.080292,346.235077 439.731232,346.628632 456.744720,355.317230 
	C461.154602,357.569336 464.625549,361.660034 468.259552,365.184326 
	C457.501495,365.545197 447.011475,365.716248 436.521912,365.690277 
	C420.374237,365.650330 404.226929,365.475189 388.079468,365.357422 
z"/>
<path fill="#F4FCFC" opacity="1.000000" stroke="none" 
	d="
M383.476410,397.439423 
	C390.375092,400.228790 396.299683,403.723053 401.343109,410.112793 
	C374.613586,410.112793 348.685516,410.112793 322.156647,410.112793 
	C326.307709,403.493164 332.350220,399.986084 339.078430,397.628906 
	C353.681213,392.512878 368.400696,392.206543 383.476410,397.439423 
z"/>
<path fill="#F6FEFE" opacity="1.000000" stroke="none" 
	d="
M487.999756,417.175293 
	C467.898773,417.176361 448.297760,417.176361 427.526886,417.176361 
	C436.427887,405.561340 448.311584,401.773163 460.821777,400.322144 
	C478.907379,398.224426 495.228394,402.667725 508.147797,417.174225 
	C501.598450,417.174225 495.049072,417.174225 487.999756,417.175293 
z"/>
<path fill="#1C9BB2" opacity="1.000000" stroke="none" 
	d="
M388.246124,365.772369 
	C404.226929,365.475189 420.374237,365.650330 436.521912,365.690277 
	C447.011475,365.716248 457.501495,365.545197 468.456146,365.413635 
	C467.691772,365.910614 466.464325,366.928009 465.233154,366.932556 
	C440.543976,367.024139 415.854340,367.007782 391.164917,366.963318 
	C390.247070,366.961670 389.330139,366.457367 388.246124,365.772369 
z"/>
<path fill="#1C9BB2" opacity="1.000000" stroke="none" 
	d="
M560.182617,489.721710 
	C562.245361,491.860291 564.236816,494.419617 566.304077,497.300110 
	C561.698853,497.300446 560.488403,494.070679 560.182617,489.721710 
z"/>
<path fill="#1C9BB2" opacity="1.000000" stroke="none" 
	d="
M549.730591,553.117493 
	C548.771973,553.745605 547.719910,554.032043 546.667786,554.318481 
	C546.642334,553.618896 546.616882,552.919373 546.591431,552.219788 
	C547.606628,552.405090 548.621826,552.590454 549.730591,553.117493 
z"/>
<path fill="#1C9BB2" opacity="1.000000" stroke="none" 
	d="
M577.223511,509.058258 
	C578.480652,509.553741 579.674255,510.432434 580.972839,511.623505 
	C579.771851,511.104431 578.465881,510.272949 577.223511,509.058258 
z"/>
<path fill="#1C9BB2" opacity="1.000000" stroke="none" 
	d="
M586.339722,515.928711 
	C587.480530,516.152832 588.622986,516.754028 589.922424,517.646606 
	C588.833435,517.393860 587.587402,516.849792 586.339722,515.928711 
z"/>
<path fill="#1C9BB2" opacity="1.000000" stroke="none" 
	d="
M583.390381,513.906128 
	C584.361023,514.021301 585.202271,514.528748 586.179321,515.304016 
	C585.297058,515.147339 584.279053,514.722839 583.390381,513.906128 
z"/>
<path fill="#1C9BB2" opacity="1.000000" stroke="none" 
	d="
M581.093628,512.276367 
	C581.763733,512.257935 582.468262,512.598877 583.290527,513.206421 
	C582.648132,513.193909 581.888062,512.914856 581.093628,512.276367 
z"/>
<path fill="#1C9BB2" opacity="1.000000" stroke="none" 
	d="
M570.188843,502.063690 
	C570.424866,501.975555 570.741882,502.155304 571.131714,502.607666 
	C570.892944,502.697357 570.581421,502.514435 570.188843,502.063690 
z"/>
<path fill="#1C9BB2" opacity="1.000000" stroke="none" 
	d="
M569.203918,501.045959 
	C569.443359,500.962524 569.753845,501.152344 570.135254,501.617188 
	C569.895691,501.701233 569.585388,501.510254 569.203918,501.045959 
z"/>
<path fill="#1C9BB2" opacity="1.000000" stroke="none" 
	d="
M566.291138,497.958771 
	C566.577759,497.848053 566.890259,498.033295 567.257568,498.497223 
	C566.980652,498.602203 566.648865,498.428467 566.291138,497.958771 
z"/>
<path fill="#1C9BB2" opacity="1.000000" stroke="none" 
	d="
M652.664795,527.814575 
	C652.671204,527.566284 652.994812,527.302612 653.650269,527.057190 
	C653.648743,527.316711 653.315308,527.557922 652.664795,527.814575 
z"/>
<path fill="#1C9BB2" opacity="1.000000" stroke="none" 
	d="
M568.208008,500.040009 
	C568.453308,499.948090 568.770325,500.131775 569.159180,500.591064 
	C568.913940,500.683014 568.596802,500.499298 568.208008,500.040009 
z"/>
<path fill="#1C9BB2" opacity="1.000000" stroke="none" 
	d="
M576.234375,508.005920 
	C576.497803,507.894135 576.823730,508.068329 577.222168,508.519287 
	C576.962097,508.627991 576.629456,508.459930 576.234375,508.005920 
z"/>
<path fill="#1C9BB2" opacity="1.000000" stroke="none" 
	d="
M575.200195,507.050415 
	C575.447693,506.941742 575.779236,507.108459 576.192688,507.550110 
	C575.944397,507.658630 575.614319,507.492218 575.200195,507.050415 
z"/>
<path fill="#1C9BB2" opacity="1.000000" stroke="none" 
	d="
M574.174072,505.963806 
	C574.414368,505.892578 574.734314,506.108948 575.135315,506.610657 
	C574.895508,506.681091 574.574646,506.466248 574.174072,505.963806 
z"/>
<path fill="#1C9BB2" opacity="1.000000" stroke="none" 
	d="
M572.195129,504.084167 
	C572.421265,503.993713 572.753357,504.179108 573.199097,504.635925 
	C572.975525,504.724854 572.638306,504.542450 572.195129,504.084167 
z"/>
<path fill="#1C9BB2" opacity="1.000000" stroke="none" 
	d="
M567.259155,498.995117 
	C567.520386,498.908051 567.821228,499.107208 568.182556,499.584747 
	C567.928284,499.669220 567.613525,499.475311 567.259155,498.995117 
z"/>
<path fill="#1C9BB2" opacity="1.000000" stroke="none" 
	d="
M571.195984,503.065216 
	C571.430542,502.981934 571.741943,503.167023 572.125183,503.625305 
	C571.888977,503.710175 571.580872,503.521912 571.195984,503.065216 
z"/>
<path fill="#154A5A" opacity="1.000000" stroke="none" 
	d="
M308.470093,716.995300 
	C305.565796,713.028564 303.124115,709.064392 300.341217,705.050171 
	C299.796967,703.907532 299.593964,702.815002 299.216949,700.786133 
	C304.220551,702.298584 308.689087,703.649292 313.578796,705.000000 
	C319.901794,705.026917 323.368042,709.337585 321.650909,714.905884 
	C321.358032,715.855713 319.497284,716.786682 318.285034,716.897583 
	C315.190430,717.180664 312.053009,716.995667 308.470093,716.995300 
z"/>
<path fill="#154A59" opacity="1.000000" stroke="none" 
	d="
M320.636658,670.470093 
	C323.632080,667.740845 326.253387,665.035767 329.295135,662.941345 
	C330.901276,661.835449 333.255737,661.411133 335.239227,661.492065 
	C335.879974,661.518127 336.841644,664.108643 336.927704,665.569031 
	C337.401917,673.616760 332.158447,676.870667 324.276398,673.451050 
	C322.870422,672.841064 321.710632,671.663513 320.636658,670.470093 
z"/>
<path fill="#154A5A" opacity="1.000000" stroke="none" 
	d="
M293.472961,700.922913 
	C293.079559,700.467407 293.044800,700.050476 293.005646,699.319214 
	C293.998322,699.445618 294.995453,699.886353 295.996277,700.663513 
	C295.277191,700.987122 294.554413,700.974304 293.472961,700.922913 
z"/>
<path fill="#154A5A" opacity="1.000000" stroke="none" 
	d="
M374.620087,748.664062 
	C374.189484,747.228516 374.117310,745.961548 374.045166,744.694641 
	C375.286438,744.648560 376.716522,744.212341 377.704224,744.690308 
	C378.389465,745.021851 378.465607,746.612000 378.813904,747.639832 
	C377.535431,748.037415 376.256958,748.435059 374.620087,748.664062 
z"/>
<path fill="#154A5A" opacity="1.000000" stroke="none" 
	d="
M326.908875,720.480896 
	C325.386932,719.902588 323.924652,718.962158 322.462372,718.021729 
	C326.605347,715.634460 326.994171,717.644958 326.908875,720.480896 
z"/>
<path fill="#154A5A" opacity="1.000000" stroke="none" 
	d="
M327.368103,729.444580 
	C326.271606,728.181580 325.452209,726.672791 324.632782,725.164001 
	C325.289795,724.908020 325.946808,724.652039 326.603821,724.396057 
	C326.950928,725.996948 327.298065,727.597839 327.368103,729.444580 
z"/>
<path fill="#154A5A" opacity="1.000000" stroke="none" 
	d="
M317.791870,684.188232 
	C317.983551,685.128540 317.833710,685.969910 317.683899,686.811340 
	C316.934692,686.347534 316.185486,685.883667 315.436279,685.419800 
	C316.107635,684.976318 316.779022,684.532837 317.791870,684.188232 
z"/>
</svg>